<svg id="logo" data-name="layer" xmlns="http://www.w3.org/2000/svg" viewBox="0 0 602.29 825.26"><title>2</title><path d="M863.16,492.6c-2,2.61-2.36,5-2,8.28,2.49,25.42,8.66,50,15.23,74.62,3.42,12.82,2.28,25.33-2.61,37.79-5.14,13.1-3,25.43,5.89,36.57,6.51,8.13,8.51,17.79,7.73,27.88-.53,6.9.7,13,4.4,18.82,15,23.38,21.1,49.33,21.86,76.72.32,11.43.64,23-.37,34.31-1.53,17.25,3.18,33.3,8.26,49.22a334.84,334.84,0,0,1,9.91,41.89c.78,4.33,2.28,8.21,5.2,11.23,14.67,15.18,23.46,32.91,29,53.52,6.38,23.55,9.26,46.7,6.08,70.8-2.29,17.35-10.68,31.93-20.46,45.74-4.65,6.55-3.68,8.91,3.76,10.8a98.28,98.28,0,0,1,18.51,6.66,36,36,0,0,1,19.65,37.18c-.4,2.85-1.33,5.67-3.6,7-15.61,9-30.54,19.77-50.59,13.38-10.17-3.24-20.62-.65-28.53,6.58-12.19,11.13-26.46,14.73-42.25,14.09-7.21-.3-13.27,4.22-20.73,3.52-26.34-2.47-40.71-16.28-45.76-45.5a98.22,98.22,0,0,1-.43-30.42c.43-3,.41-5.4-1.68-7.37-3-2.78-4,1.1-5.79,2-43,22.36-88.13,28.23-135,15.87-15.9-4.19-32.27-8.59-45.47-19.79-4.13-3.5-6.3-.36-7.72,3.58a49.41,49.41,0,0,1-46.34,32.88c-12.26.16-24.58,1-36.09-4.91-4.5-2.33-8-.29-10.34,4.07-8.61,16.07-23,28.76-39.77,28.15-19.41-.71-39,6-58.42-1.21-19.61-7.33-27.63-26.58-18.19-46.85,4.61-9.89,11.92-15.9,22.45-20.32,25-10.5,37.82-17.2,37.64-49.74-.22-39.28-.21-78.56-.25-117.84-.05-44.19,0-88.39-.12-132.59,0-7.57.4-15.09,3-22.14,4.5-12.05,3.43-24.1,1.23-36.3-3.38-18.8-1.88-36.67,10.16-52.51,2.65-3.48,3.18-7.65,3.52-11.87.49-5.91-.13-12,3.69-17.28,2-2.78.5-6.21-.72-8.56-11.37-21.86-10.43-44.44-4.47-67.36,1.71-6.57,2.09-10.6-7.28-10.24-8,.31-14.92-4.27-19.6-11.09-14-20.43-28.09-40.85-41.79-61.5-5.83-8.79-9.28-18.81-11.59-29.06-4.09-18.13,2.16-30.59,21.26-42,7.06-4.23,14.06-8.68,22-11.4,27.49-9.44,53.63-22.14,80.27-33.62,6.33-2.73,12.27-2.93,17.74.3,5.09,3,8.28.81,12.94-1,18.79-7.37,37.37-15.8,57.84-17.7,2.93-.27,7.08-.81,8.73.78,8.31,8,15.23,3.7,23.67-.16a29.26,29.26,0,0,1,24.5.47c2.8,1.3,5.51,2.41,8.6,1.57,27.32-7.44,53.52-4.33,79.15,7.41,5.41,2.47,12,2.37,18,3.47a4.91,4.91,0,0,0,5.32-2.48c6.83-10.47,17-10.54,27.2-7.66,26.06,7.29,50.5,17.52,71.33,35.91a37.54,37.54,0,0,0,27.24,8.93c9.76-.67,19.73-1.69,29.43,1.54,9.29,3.09,14.15,9.26,15.1,19.05,1.87,19.3-5.29,36.5-12.3,53.68a159.46,159.46,0,0,1-14.13,27c-3.23,4.94-6,9.9-7,16.19-1.92,11.44-12.79,14.07-22.62,8.05C872.64,520.94,871.07,505.39,863.16,492.6Zm36,666.16c19.1-13.72,18.17-26.87-.52-35.33-16-7.25-18.46-12.71-17-30.55,1.16-14.34,3.74-28.46,4.59-42.86a984.73,984.73,0,0,1,12.68-108.67c1.1-6.39.8-11.68-3.94-16.46-5.19-5.22-6.67-11.67-6.27-19,.84-15.32,3.89-30.28,6.76-45.26,7.09-37,13-74,6.81-111.78a157.06,157.06,0,0,0-15.82-47.5c-.84-1.61-1.41-3.74-3.55-3.24-1,.25-1.66,2.16-2.47,3.32-2.55,3.66-3.15,8.89-9.15,11.42,3.09-8.29,6.19-15.34,8.36-22.67,3.06-10.35,3-20.71-2.58-30.43-1-1.74-1.7-4.18-4.26-4.14-3.19.05-2.11,3-2.81,4.77-4.2,10.3-8.9,20.41-16.38,28.72a381.54,381.54,0,0,1-36,35.28c-17.22,14.66-33.21,30.34-42.54,51.54-.54,1.23-1.26,2.79-3.68,1.92C770.58,769,775,761.81,779.8,755c13.58-19.19,30.85-35.11,47.4-51.56,17.2-17.08,33.44-34.36,36.65-59.8.3-2.38,4-5.14.69-7-2.85-1.58-4.51,2-6.2,4-2.34,2.74-4.51,5.61-6.87,8.33-14.6,16.84-33,28.73-52.3,39.44a36.75,36.75,0,0,1,7.34-8.29c18.43-16.69,36.18-34,50.06-54.83,11.44-17.17,14.77-35.3,9-55.59C858.48,544.39,851.87,519,854.83,492c1.33-12.06-3.47-22-15.49-28.8-17.28-9.73-29.7-24.54-37-43.31-2.82-7.24-6.09-14.31-9.11-21.47-3.47-8.23-8.53-13.69-17.47-17.63-15.2-6.68-31.67-8.68-46.74-15.05-8.43-3.56-16.85-6.19-25.89-4.89-7,1-13.39,3.77-20.94,1.41-4.09-1.28-8.23,2.38-10.23,7.12-1,2.3-.33,5.5-4.25,7.43-1.28-5.32-2.69-10.87-8.6-12.37-11.64-2.93-23.13-4-32.94,5.08-3.11,2.87-5.41,4.14-8.38-.63-3.74-6-10-7.69-16.59-5.8q-24,6.79-47.88,14.24c-6.9,2.17-12.08,5.9-11.72,14.69.22,5.32-3.72,9.34-8,12.36-5.15,3.62-10.42,7.06-15.7,10.47-15.06,9.73-25.23,23.07-28.57,40.77a241.45,241.45,0,0,0-3.85,40c-.5,27.61-3,55-5.14,82.46-1.5,19.09-5.29,38.1,4.78,56.21,6.43,11.56,15.16,21.24,23.8,31.08,5.75,6.54,12.83,12,16.9,20a200.3,200.3,0,0,1-34.49-25.7c-1.73-1.57-3.35-4.11-6-3s-1.81,4.19-1.91,6.44a84,84,0,0,0,4.09,30.07c8.29,25.52,24.8,45.64,42.58,64.8,15,16.17,28.8,33.1,39.94,52.21,6.52,11.19,14.45,21.36,26.28,27.7.87.47,2.1,1.16,1.09,3.17-10-2.74-18.65-7.85-24.53-16.49-16.77-24.66-34.37-48.4-56.5-68.83a139.85,139.85,0,0,1-38.83-61.66c-.62-2-1.34-4.06-4.32-4.65-7.88,10.81-5.62,23.24-4.67,35.21,1.12,14.06,3.05,28.07-1.95,41.76-2.42,6.64-2.61,13.46-2.81,20.37-1.47,50.1,2.73,100.07,3.07,150.12.26,36.56,1.69,73.16-1.39,109.69-2,24.07-15.67,39-37.83,46.15-6.77,2.19-4,4.39-1.36,7.63-2.07.55-3.5.95-4.94,1.32-17.19,4.44-24.46,16.48-20.27,33.72,1.13,4.63,4,9.61,8.38,9.26,3.92-.31,1.61-6.06,2.23-9.36a31.76,31.76,0,0,0,.13-4.48c.69-14.69,10.8-22.94,26.1-21.15-2.34,5.71-8.57,6.13-12.66,9.41-6.89,5.54-8.69,16.13-3.75,25.15,3,5.41,13.93,8.29,20.59,7.11,13.4-2.37,10.89-15.12,15-23.05,2-3.89,3.39-6.23,7.22-8.16,1.13,5.17-1.35,8.68-3,12.48-2.48,5.89-.5,11.18,3.33,15.66,2.4,2.79,6.09,4.79,9.63,2.67,12.26-7.36,25.26-14.06,31.36-28.28,10.84-25.28,21.58-50.61,30.26-76.73,1.61-4.87,3.33-10.22.68-15.53-9.09-18.25-11-37.8-7.83-57.42,3-18.5,11.8-34.47,27.17-46.09-4.66,8.6-10.55,16.81-13.08,26.16-5.46,20.19-16.38,41.09,3.17,60.1.41.41,1.23.51,1.46,1,1.14,2.18-.76,4.41-1.92,3.66-4.78-3.08-3.69-.05-2.82,2.44a58.05,58.05,0,0,1,1.37,35c-1,3.92.9,5.4,4.62,5.74,5.38.5,10.75,1.28,16.12,1.93-5.77,4.36-11.9,3.41-18,3.17-2.57-.1-5.65-1.46-7.37,1.55-5.95,10.43-9.95,21.63-13.15,33.16,3.45-2.47,3.91-7.3,9-8.92-1.91,6.4-3.63,12.36-5.47,18.28-1.2,3.84-2.53,7.81,1.72,10.49s9.25,5.81,14.24,3.52c4.46-2,1.12-7,1.65-10.64a17.3,17.3,0,0,0,0-2.69c-.12-12.07,7.39-18.39,20-16.61-1.75,3.14-4.92,4.39-7.54,6.27-6.79,4.87-5.72,11.63-3.3,17.81,2.52,6.47,8,3.28,12.38,2.05,13.86-3.93,25-11.18,30.8-25.14,1.92-4.62,2.21-8-1.89-11.79-13.45-12.51-24.09-27.46-35.17-42-3.81-5-7.48-10.12-11.21-15.18-1.26-1.7-2.82-3.46-.79-5.51,2.67-2.7,4.36-.12,5.84,1.54,3.19,3.55,6.79,6.95,9.08,11,10.16,18.18,23.38,33.21,39.76,46.43,39.41,31.82,84.44,36.45,132,29.8,18.11-2.53,34.82-10.4,51.64-17.54,10.2-4.33,16-10.67,16.88-22,.72-9.22,2.83-18.33,4.37-27.48,2.88-17,7.75-34,.45-51.23-6.17-14.59-12.44-29.24-16.24-44.65-1.39-5.63-4-10.29-6.58-15.24-3.66-7.11-10.26-3.43-16.19-3.89,9.3-10.5,20.14-7.63,25.57,5.71,6.81,16.73,13.78,33.4,20.65,50.1,5.32,12.91,9,26,6,40.22-3,14-6.16,28.06-8.39,42.22-3.58,22.7-6.8,45.46-4.55,68.6,1,10.2,3.55,19.26,12.94,25.35,2.48-5.26-1.07-10.57,1.88-15.67,5.53,6.16,5.65,14.34,10.64,20.07,5.78,6.64,12.89,7.83,20.3,4.74,6.27-2.61,6.16-9,5.34-14.75s-2.33-11.53-3.61-17.71a9,9,0,0,1,6.4,4.68,36.46,36.46,0,0,1,5.55,16.85c.5,9.5,4.3,11.51,12.84,7.52,5.07-2.37,7.66-6.46,8.61-11.79A26.91,26.91,0,0,0,886,1131c-1.73-2.12-4.31-3.88-4.36-7.78C897.72,1129.68,901.41,1142,899.16,1158.76Zm11.16-312.7c-5.39,18.89-8.28,38-10.9,57.1-.91,6.58.79,12.25,4.75,17.64,3.71,5.07,7.37,10.75,5.75,17.4-5.33,21.82-7.1,44.14-9.49,66.35-2.92,27-6.08,54-7,81.15-.19,5.35,1.15,7.7,6.63,7.88,9.37.31,18.83.41,26.79-5.17,20.86-14.62,33.65-35.28,36.38-60.05,3.42-31-2.13-61.23-15.16-90-5.47-12.06-12.73-20.1-27-19-1.72.13-3.69.28-4.54-2.3,8-2,12.08-6.13,7.83-14.74-.75-1.53-.47-3.54-.79-5.31C920.48,879.78,917.91,862.42,910.32,846.06Zm38,265.72c5,1,6.85,3.9,9.19,6,6.26,5.57,12.25,11.46,18.7,16.79,5.59,4.63,8.79,3.25,10.42-3.83,2.2-9.61-3.44-21.32-13.26-27.39-8.7-5.38-19.39-6.18-27.91-12-1.45-1-2.91-.32-4.09.67-12.54,10.54-27.22,13-43,11.49-2-.18-4.56-.57-5.12,2.27a5,5,0,0,0,2.44,5.39c5.11,3.06,10.36,5.89,15.41,9.05,7.39,4.62,11.66,11,10.76,20.14-.23,2.27-1.5,5,1.38,6.38,2.32,1.11,4.83.28,6.77-1.15,2.37-1.74,1.3-4.32.86-6.62-.84-4.43-4.85-8-3.91-13.39,4.3,1.57,6,5.19,7.06,8.23,4.38,12.5,13.83,13.82,25,12.7,9.66-1,11.19-3.69,6.08-11.7C960.3,1127.24,953,1121.56,948.32,1111.78Zm-63-625.57c1.59-2.06.69-3.57,0-5.24-7.14-16.54-18.39-29.47-34.38-37.76s-27-20-30.54-38.25c-1.12-5.76-3.7-11.39-6.42-16.66-3.44-6.67-8.44-12-16.77-13.22,13.43,9.15,15.45,24,19.83,37.71,4.49,14.12,12.22,25.59,26.53,32a76.13,76.13,0,0,1,30.63,24.33C878.16,474.57,881.57,480.43,885.32,486.21ZM474.18,434.75c-10.55,12-9.63,26.78-9.65,41.27,0,14.64-1.13,29.23-1.66,43.89C475.22,492.73,465.94,462.61,474.18,434.75Z" transform="translate(-391.25 -353.99)"/><path d="M613.33,521.48c9.63-8.49,9.63-8.49,17-34,5.75,6.66,6,13.87.72,23.42-5.52,10-14.51,16.62-23,23.78-2.42,2.06-5.49,3.42-6.19,7.54,6.57-4.83,13.24-9.53,19.69-14.51,11-8.49,22.11-16.53,36.53-18,5.53-.57,5.1-4.31,4.92-8.57-.65-15.08-3-30.14-1-47.87,3.69,10.3,3.44,18.79,4,26.84.56,7.7,2.61,15.17,2.67,22.86,0,3,.6,5.67,3.74,6.32,27.45,5.64,44.31,28.11,66.65,41.86,10.75,6.62,21,14.25,34,16.6l-23.86-15.08.48-1,6.55,1.39c-11-11.62-20.79-23.27-11.46-41.41-11,8-11,18.15-1,35.79-21-4.22-51.72-38.32-49-55.6,3.81,8,7,15.33,12.41,21.37,1.55,1.76,3.13,4.36,5.8,3.3,3.28-1.29,2.42-4.67,1.82-7.11-1.22-4.94-2.69-9.8-3-14.94-.81-14.23,5.05-20.14,19.12-18.69,3.2.33,7,.83,9.34,2.74C755.7,491,775,492.66,792.56,498.9c18.94,6.73,25.75,22.53,17,40.55a54.34,54.34,0,0,1-24.78,25.49c4.34,3.23,8.76,2.81,12.72,3.55,27.42,5.13,37.6,25.51,25.42,51.13-5.85,12.31-14.74,22.4-23.25,32.77-27.69,33.74-63.1,56.26-104.87,67.31-27.46,7.26-54.5,1.86-81.11-9-19.26-7.88-37.81-16.19-53.88-29.38-19-15.58-34.9-33.84-45.18-56.32-5.24-11.46-8.38-23.64-2.89-36.17,4.58-10.46,10.33-13.66,21.3-11.39a72,72,0,0,0,16.88,1.09c1.49,0,4.09.34,3.63-2.54a3.18,3.18,0,0,0-3.29-2.46c-15.91-.77-26.22-10.43-34.33-22.65-14.33-21.57-1.68-51.35,23.85-56.73a70.76,70.76,0,0,1,16-1.78c13.65.34,26.45-1,38.31-9.23,5.51-3.85,13.35-6.46,19.87-.21,10.11,9.67,10.39,11.59,5.19,23.78C617.43,510.75,615.92,514.9,613.33,521.48ZM578,654.7c9,13.14,20.2,23.1,36,26,4,.74,7,2.24,8.11,6,1.85,6.11,6.75,8.34,11.85,11a71.2,71.2,0,0,0,24.7,7.78c13.68,1.53,27.56,1,39.26-8.31,12.09-9.59,13.63-34.81,2.74-45.35-.21,3.24.13,7-5.18,4.4a44.48,44.48,0,0,0-7.63-2.58c-13-3.49-21.86,2.45-23.31,15.38-.46,4.15-.43,8.67-4.76,12.75-.24-5.07-.52-8.94-.58-12.81-.15-9-4.24-14.37-13.39-16-5.41-1-11,.57-16.07-.75-7.13-1.85-8.07,2.4-9.09,7.22-.37,1.73-.22,3.56-.53,5.31-2.26,12.4-4.53,13.78-15.48,7.49C595.49,666.94,586.88,660.59,578,654.7Zm82.6-81.63c-2.83,5.89-3.24,9.67-2.55,13,5.51,27.08-9.47,39.48-32.08,48.86-28.25,11.73-51.44,8-72.26-14.6-4.66-5.06-9.28-10.18-15.05-14.08-2.75-1.86-5.92-4.58-8.91-2.33s-1.34,6.1-.38,9.21a23.94,23.94,0,0,0,2.55,5.7c.71,1.12,2.44,2.65,3.19.17,2.31-7.57,5.39-2,7.41-.24a158.61,158.61,0,0,1,14.85,14.36c15,16.93,46,23.7,68.92,9.6,9.67-6,19.71-11.33,29.33-17.35,4.14-2.59,7.53-2.81,11.39.17,8.77,6.77,18.59,11.78,28.49,16.66,16.63,8.21,33.4,8.41,50.28,1,15.53-6.8,28.77-16.88,40.59-28.9,3.76-3.82,7.19-6.33,9.54,1.59,3.18-3.7,3.31-7.43,4-10.83.67-3.23.65-7-2.84-8.74-3.25-1.63-5.72,1-7.79,3.08-6.28,6.29-12.27,12.88-18.59,19.13-16.49,16.34-35.66,26.67-59.57,22.62-15.7-2.66-27.64-13.54-40.28-22.27-11.3-7.81-9.91-23.37,1.91-30.27,1.81-1,3.57-2.18,5.33-3.32,3.64-2.37,4.78-5,1.52-8.76-4.9-5.68-7-12-1.65-20-9.61,4.78-10.13,8-4.26,19.41,1.37,2.65,3.69,5.16.39,7.89-2.8,2.31-5.94,4.65-9.72,3.63-3.31-.9-2.37-4.39-2.76-6.94C661.35,578.86,661.15,577.12,660.61,573.07Zm25.82,2c10.86,2,17.79-6.06,14.68-16.15-2.78-9-8.48-16.11-17.87-18.66-17.25-4.69-34.52-3.38-51.16,2.71-10.58,3.88-15.28,12.74-13.62,22.56,1.08,6.38,8.21,12.47,14,11.53,8.19-1.33,5.91-7.47,5.5-12.69-.17-2.13-.22-4.27-.34-6.73-3.87,1.86-3.1,4.79-3.26,7.36s1.35,5.75-2.78,6.39a7.13,7.13,0,0,1-7.1-3c-3.87-5.24-2.29-10.38,1.19-14.87,3.28-4.24,7.2-8.87,13.46-5.83,13.24,6.43,26.45,6.34,39.87.88,6.94-2.82,11.71-.06,14.63,6.17C698.09,564.33,696.83,567.88,686.43,575.08Zm74.24,68.21c-14.46,12.48-29.16,24.62-47,32.23C738.65,678.16,749.58,660.61,760.67,643.29Zm-191-135c15.19,9.08,17.07,21.41,11.71,36.65,8.34-6.85,11.59-18.4,6.57-27.1C584.85,512.46,579.25,507.67,569.69,508.3Zm-23,43.76c-8.75-8.25-8-19.15-7.82-31.06C527,534.43,530.65,547.48,546.71,552.06ZM754.37,579.9c-11.19-8.55-21-16-30.77-23.61-1.37-1.08-2.13-1.64-3.59-.42-1.92,1.6-.55,2.14.65,3.15C730.36,567.16,739,576.91,754.37,579.9Zm32.54-61c4.22,13,4.63,23.13-6.7,32.77,10.36-1.3,13.4-6.37,14.6-12.18C796.27,532.37,795.75,525.32,786.91,518.86ZM577.72,528.1c-.4-5.13-9.58-10.29-14.86-8.25-2.26.88-5.5,2.73-4.23,4.88,3.44,5.85,10.87,3.24,15.92,6.18,1.55.9,2.76-.32,3.27-1.94A2.25,2.25,0,0,0,577.72,528.1Zm188.91-9.51c-2.75-.08-6-.2-6.73,3s2.11,4.8,5,5c2.63.22,4.45,1.53,6.23,3.15s4,3.25,6.25,1.09c2.55-2.46,1.16-5.09-.91-7C773.67,521.25,771.16,518,766.63,518.59Zm-121.47,2.09c14.4-3.64,28.42-2.62,44,2.77C675.72,513.35,656.91,512.33,645.16,520.68ZM606.45,555c-6.63,3.84-13,8.12-16.91,15A44.72,44.72,0,0,0,606.45,555Z" transform="translate(-391.25 -353.99)"/><path d="M638.58,749.1c13,3.85,24.95-3,37.3-2.94,12,.05,21.73,10.82,34.84,7.7-4.36,4.62-9.69,5.61-14.55,3.9a69.76,69.76,0,0,0-40.62-2C648.88,757.33,642.78,755.3,638.58,749.1Z" transform="translate(-391.25 -353.99)"/><path d="M612.62,769.79c-20.26-16.68-42.51-31.32-55-55.45C575.29,733.54,596.16,749.56,612.62,769.79Z" transform="translate(-391.25 -353.99)"/><path d="M742,765.81c-13.16,18.68-40.87,17.43-52.14,38.86-.18-12.95,8.51-19.47,18.18-23.82C719.21,775.8,730.41,770.7,742,765.81Z" transform="translate(-391.25 -353.99)"/><path d="M650.64,892.85c-17.54,20-42.23,12.79-65.87,17.93,6.63-7.32,13.76-6.73,20.34-7.3C620.78,902.13,636.93,902.94,650.64,892.85Z" transform="translate(-391.25 -353.99)"/><path d="M728.35,444.24c13-1.59,25.22-3.75,36.26,6,8.22,7.27,18.43,11.65,29,15.72-2,2.82-4.34,1.59-6.44,1a75.06,75.06,0,0,1-24.75-12.05c-8.17-6.2-16.84-9.73-27.28-8.4C733.11,446.76,730.39,447.48,728.35,444.24Z" transform="translate(-391.25 -353.99)"/><path d="M527.34,487.73c-14.53,12.92-32.08,24-27.54,49.76C488.65,520.92,504.56,494.4,527.34,487.73Z" transform="translate(-391.25 -353.99)"/><path d="M804,482.2c22.63,10.94,28.12,30.11,16.32,55.06C825.1,515.88,823.36,496.46,804,482.2Z" transform="translate(-391.25 -353.99)"/><path d="M785.37,851c16.58-7.15,27.51-21,40.7-32.78C822.68,833.5,799.3,852.47,785.37,851Z" transform="translate(-391.25 -353.99)"/><path d="M514.91,816.07c-18.38-9.23-30.2-25.13-30.34-40.28C492.24,791,503.4,803.68,514.91,816.07Z" transform="translate(-391.25 -353.99)"/><path d="M686.66,891.31c15,13.78,33.61,13,51,19.13C718.14,914.53,694.15,905.89,686.66,891.31Z" transform="translate(-391.25 -353.99)"/><path d="M700.28,387.32c10.76,15.24,20.91,27.83,36.85,37.32C721.75,423.45,706.1,407.39,700.28,387.32Z" transform="translate(-391.25 -353.99)"/><path d="M641.28,801.56c10.62,10.36,25.42,17.31,27.59,34.57C661.37,823.22,647.57,815.46,641.28,801.56Z" transform="translate(-391.25 -353.99)"/><path d="M505.92,568.56C493,578.18,490,591.77,491,608.35,482.63,591.2,488.08,577.05,505.92,568.56Z" transform="translate(-391.25 -353.99)"/><path d="M832.59,554.42c15.81,1.53,26.15,13.57,23.81,28C853,569.15,843.7,561.1,832.59,554.42Z" transform="translate(-391.25 -353.99)"/><path d="M563.48,407.42q9.62-15.29,19.24-30.57C579.66,389.23,576.06,401.25,563.48,407.42Z" transform="translate(-391.25 -353.99)"/><path d="M683.39,444.36c-9.37-8.37-8.6-19-6.65-29.93C680.81,424,680.39,434.56,683.39,444.36Z" transform="translate(-391.25 -353.99)"/><path d="M844.25,765.68l18.24-25.93C861.44,751.91,855.83,760.94,844.25,765.68Z" transform="translate(-391.25 -353.99)"/><path d="M652.34,406.63a38.8,38.8,0,0,1-3,29.51C648.55,426.13,648.58,416.19,652.34,406.63Z" transform="translate(-391.25 -353.99)"/><path d="M557.35,461.23c7.58-10.41,18.43-12.06,30.36-10.83C577.33,453.32,566.8,455.84,557.35,461.23Z" transform="translate(-391.25 -353.99)"/><path d="M598.55,423.92c6.15-8.07,14.08-14.95,16.09-26.49C618.63,407.23,613,416.6,598.55,423.92Z" transform="translate(-391.25 -353.99)"/></svg>